<?xml version="1.0" standalone="no"?>
<!DOCTYPE svg PUBLIC "-//W3C//DTD SVG 1.1//EN"
	"http://www.w3.org/Graphics/SVG/1.1/DTD/svg11.dtd">
<svg xmlns="http://www.w3.org/2000/svg"
	version="1.1" width="100%" height="100%" viewBox="0 0 100 100">
	
	<g stroke="#FFEEEE" fill="none" stroke-width="5">
		<rect x="25" y="10" height="80" width="50"
			rx="10" ry="10"/>
		<rect x="60" y="9" height="16" width="16"
			stroke="none" fill="#FFFFFF"/>
		<line x1="30" y1="40" x2="70" y2="40"/>
		<line x1="30" y1="50" x2="70" y2="50"/>
		<line x1="30" y1="60" x2="70" y2="60"/>
		<line x1="30" y1="70" x2="70" y2="70"/>
		<line x1="30" y1="80" x2="70" y2="80"/>
		
		<line x1="69" y1="3" x2="59" y2="20"/>
		<line x1="82.7" y1="6" x2="70" y2="27"/>
		
		<path d="M59 20
			Q65 20 70 27"/>
		<line x1="59" y1="20" x2="57" y2="35"/>
		<line x1="70" y1="27" x2="57" y2="35"/>
		
		<line x1="30" y1="20" x2="56" y2="20"/>
		<line x1="30" y1="30" x2="55" y2="30"/>
	</g>
</svg>